<?xml version="1.0" encoding="utf-8"?>
<!-- Generator: Adobe Illustrator 16.0.0, SVG Export Plug-In . SVG Version: 6.00 Build 0)  -->
<!DOCTYPE svg PUBLIC "-//W3C//DTD SVG 1.1//EN" "http://www.w3.org/Graphics/SVG/1.1/DTD/svg11.dtd">
<svg version="1.1" id="Layer_1" xmlns="http://www.w3.org/2000/svg" xmlns:xlink="http://www.w3.org/1999/xlink" x="0px" y="0px"
	 width="185px" height="38px" viewBox="0 0 185 38" enable-background="new 0 0 185 38" xml:space="preserve">
<g>
	<path fill="#F1740C" d="M2.32,12.312c2.052-2.077,5.023-0.066,6.427,1.781c2.61,2.931,3.333,8.642-0.951,10.417
		C2.328,24.575-1.522,16.44,2.32,12.312z"/>
	<path fill="#F1740C" d="M10.907,2.05c2.44-1.96,5.356,0.548,6.624,2.686c2.42,3.44,2.486,9.61-2.292,10.973
		C9.411,15.106,6.312,5.974,10.907,2.05z"/>
	<path fill="#F1740C" d="M26.528,1.48c3.032-0.774,4.649,2.714,4.919,5.186c0.779,4.133-1.712,9.779-6.627,9.041
		C19.763,12.747,20.719,3.151,26.528,1.48z"/>
	<path fill="#FF1F70" d="M7.417,31.854c2.159-5.433,6.312-10.273,11.861-12.385c5.5,1.477,8.643,6.583,11.139,11.305
		c0.87,1.779,1.494,4.406-0.476,5.72c-2.438,2.717-6.165,0.763-9.112,0.254c-4.194-0.313-8.897,2.858-12.78,0.147
		C6.178,35.818,6.76,33.498,7.417,31.854z"/>
	<path fill="#F1740C" d="M35.509,14.069c2.919,0.01,3.567,3.538,3.234,5.833c-0.262,3.914-3.83,8.434-8.097,6.621
		C26.767,22.668,29.872,14.223,35.509,14.069z"/>
</g>
<g>
	<path d="M154.896,24.031l3.349-4.995c-0.763,0.03-1.562,0.14-2.404,0.33c-0.84,0.188-1.562,0.395-2.161,0.606
		c-0.6,0.217-1.137,0.424-1.609,0.615c-0.467,0.194-0.807,0.331-1.014,0.413c-0.053,0-0.101-0.019-0.152-0.056
		c-0.055-0.035-0.078-0.08-0.078-0.131c0-0.061,0.172-0.418,0.513-1.075c0.341-0.658,0.74-1.365,1.2-2.119
		c2.561-0.914,4.822-1.372,6.783-1.372c2.268,0,3.842,0.484,4.72,1.449c0.313,0.338,0.558,0.75,0.729,1.245
		c0.172,0.494,0.26,0.983,0.26,1.464c0,1.1-0.23,2.096-0.688,2.99c-0.457,0.897-1.109,1.674-1.96,2.334
		c-0.849,0.66-1.849,1.162-2.995,1.512c-1.148,0.347-2.408,0.521-3.775,0.521c-0.242,0-0.736-0.046-1.482-0.132l-0.986,1.802
		c0.102,0.152,0.152,0.275,0.152,0.371c0,0.227-0.052,0.418-0.152,0.57c-0.147,0.22-0.342,0.507-0.582,0.867
		c-0.24,0.357-0.401,0.598-0.489,0.713c-0.083,0.118-0.179,0.22-0.281,0.309c-0.108,0.088-0.212,0.131-0.315,0.131
		c-0.211,0-0.349-0.063-0.403-0.191c-0.06-0.129-0.091-0.305-0.091-0.532c0-0.321,0.16-0.833,0.477-1.53
		c0.32-0.699,0.801-1.63,1.443-2.785c-0.342-0.131-0.61-0.303-0.801-0.514c-0.19-0.212-0.285-0.423-0.285-0.626
		c0-0.454,0.261-0.873,0.779-1.262C153.113,24.564,153.881,24.259,154.896,24.031z M156.04,24.327l-0.626,1.054
		c0.277,0.018,0.523,0.029,0.738,0.044c0.216,0.019,0.396,0.022,0.543,0.022c1.281,0,2.39-0.172,3.332-0.518
		c0.938-0.343,1.687-0.769,2.24-1.277c0.549-0.51,0.949-1.02,1.2-1.532c0.246-0.511,0.373-0.938,0.373-1.283
		c0-0.478-0.192-0.851-0.571-1.12c-0.381-0.27-0.929-0.456-1.642-0.554c-0.714-0.098-1.633-0.148-2.76-0.148
		c0.017,0.081,0.021,0.18,0.021,0.296c0,0.38-0.203,0.88-0.604,1.503l-1.908,2.996l1.438-0.164c0.119,0,0.176,0.056,0.176,0.164
		c0,0.097-0.094,0.164-0.284,0.199L156.04,24.327z"/>
	<path d="M165.979,27.486v0.275c0,0.434,0.104,0.77,0.317,1.012c0.212,0.24,0.489,0.361,0.834,0.361
		c0.358,0,0.731-0.085,1.116-0.253c0.384-0.169,0.766-0.393,1.145-0.669c0.381-0.277,0.846-0.652,1.396-1.12v0.669
		c-0.828,0.995-1.603,1.76-2.326,2.29c-0.728,0.529-1.46,0.794-2.207,0.794c-0.651,0-1.168-0.253-1.549-0.757
		c-0.378-0.506-0.567-1.196-0.567-2.075c0-0.768,0.178-1.465,0.536-2.09s0.943-1.285,1.757-1.98
		c0.555-0.477,1.107-0.834,1.657-1.075c0.548-0.241,1.039-0.363,1.472-0.363c0.344,0,0.617,0.081,0.816,0.237
		c0.201,0.158,0.301,0.394,0.301,0.709c0,0.461-0.17,0.92-0.515,1.376c-0.345,0.459-0.867,0.913-1.572,1.364
		C167.879,26.639,167.01,27.07,165.979,27.486z M166.088,26.775c0.658-0.258,1.221-0.576,1.689-0.957
		c0.469-0.379,0.813-0.743,1.037-1.092c0.224-0.35,0.334-0.604,0.334-0.766c0-0.168-0.075-0.251-0.23-0.251
		c-0.131,0-0.348,0.085-0.643,0.251c-0.293,0.169-0.596,0.391-0.901,0.658c-0.304,0.271-0.574,0.59-0.815,0.956
		C166.318,25.945,166.159,26.344,166.088,26.775z"/>
	<path d="M174.884,21.398h0.472c0.39-0.696,0.74-1.188,1.056-1.479c0.315-0.289,0.67-0.435,1.071-0.435
		c0.404,0,0.604,0.095,0.604,0.276c0,0.089-0.157,0.325-0.469,0.712c-0.317,0.392-0.556,0.715-0.714,0.978
		c0.246,0.03,0.469,0.056,0.664,0.079c0.193,0.021,0.346,0.039,0.455,0.056c-0.418,0.774-0.94,1.569-1.569,2.38
		c-0.208-0.015-0.378-0.023-0.517-0.04c-0.14-0.011-0.28-0.019-0.424-0.03c-0.144-0.013-0.316-0.022-0.519-0.039
		c-0.396,0.636-0.729,1.207-0.994,1.707c-0.269,0.5-0.474,0.959-0.616,1.377c-0.141,0.416-0.214,0.813-0.214,1.186
		c0,0.505,0.204,0.758,0.604,0.758c0.276,0,0.643-0.148,1.093-0.445s1.052-0.75,1.805-1.365v0.734
		c-1.976,2.146-3.437,3.215-4.379,3.215c-0.33,0-0.596-0.129-0.797-0.387c-0.201-0.255-0.302-0.582-0.302-0.986
		c0-0.271,0.058-0.594,0.171-0.967c0.114-0.373,0.315-0.936,0.608-1.69c-0.103,0.09-0.199,0.175-0.291,0.259
		s-0.175,0.161-0.252,0.23c-0.078,0.069-0.158,0.144-0.246,0.22c-0.09,0.075-0.175,0.155-0.264,0.235V27.18
		c0.768-0.646,1.696-1.777,2.788-3.392c-0.108-0.011-0.21-0.015-0.308-0.019c-0.096-0.004-0.205-0.006-0.34-0.006
		c-0.433,0-0.756,0.029-0.967,0.088c-0.088,0.021-0.169,0.047-0.244,0.07c-0.078,0.025-0.131,0.039-0.158,0.039
		c-0.029,0-0.047-0.02-0.047-0.064c0-0.242,0.149-0.604,0.451-1.086c0.24-0.408,0.469-0.711,0.687-0.912
		c0.216-0.197,0.479-0.332,0.791-0.399C173.884,21.432,174.32,21.398,174.884,21.398z"/>
	<path d="M176.855,27.4v-0.264c1.889-1.99,3.188-3.385,3.896-4.183c0.162-0.899,0.548-1.349,1.164-1.349
		c0.152,0,0.316,0.043,0.491,0.131l0.065,0.207c-0.025,0.089-0.041,0.212-0.041,0.375c0,0.139,0.053,0.396,0.157,0.771
		c0.106,0.378,0.188,0.692,0.249,0.951c0.057,0.256,0.087,0.544,0.087,0.868c0,0.482-0.11,0.945-0.329,1.387
		c-0.221,0.441-0.537,0.868-0.955,1.273c-0.416,0.404-0.955,0.822-1.613,1.246c0.265,0.043,0.472,0.065,0.627,0.065
		c0.299,0,0.619-0.075,0.971-0.226c0.35-0.149,0.699-0.353,1.066-0.604c0.358-0.25,0.781-0.58,1.266-0.981v0.734
		c-0.938,0.916-1.773,1.608-2.514,2.08c-0.739,0.473-1.377,0.708-1.911,0.708c-0.685,0-1.323-0.291-1.908-0.879
		c-0.345-0.354-0.558-0.688-0.644-1.011C176.9,28.385,176.855,27.949,176.855,27.4z M180.949,25.72l-0.197-1.601
		c-0.454,0.513-1.423,1.496-2.908,2.951c0.438,0.096,0.738,0.225,0.9,0.388c0.162,0.16,0.388,0.472,0.683,0.931
		c0.496-0.205,0.88-0.483,1.146-0.839c0.266-0.354,0.4-0.84,0.4-1.454c0-0.074-0.002-0.138-0.007-0.199
		C180.962,25.838,180.957,25.781,180.949,25.72z"/>
</g>
<g>
	<path fill="#FF1F70" d="M61.922,6.82l6.821,25.97h-3.338l-4.127-15.867l-7.104,16.826l-7.127-16.965L42.862,32.79h-3.319
		l6.821-25.97L54.169,25.4L61.922,6.82z"/>
	<path fill="#FF1F70" d="M85.516,16.644h3.404V32.79h-3.404v-3.21c-1.658,2.439-3.713,3.66-6.167,3.66
		c-2.126,0-3.943-0.835-5.45-2.506c-1.506-1.67-2.26-3.698-2.26-6.086c0-2.258,0.76-4.23,2.28-5.919s3.305-2.535,5.353-2.535
		c1.264,0,2.464,0.347,3.601,1.038c1.135,0.692,2.017,1.592,2.643,2.702V16.644z M85.985,24.768c0-1.475-0.53-2.736-1.589-3.787
		c-1.058-1.051-2.325-1.575-3.803-1.575c-1.437,0-2.692,0.521-3.764,1.564c-1.073,1.046-1.608,2.271-1.608,3.681
		c0,1.526,0.523,2.824,1.569,3.894c1.045,1.07,2.313,1.604,3.802,1.604c1.478,0,2.746-0.53,3.803-1.594
		C85.455,27.49,85.985,26.229,85.985,24.768z"/>
	<path fill="#FF1F70" d="M103.773,18.563l-2.27,1.996c-0.587-0.418-1.098-0.732-1.527-0.949c-0.431-0.214-0.938-0.321-1.525-0.321
		c-1.385,0-2.074,0.509-2.074,1.526c0,0.729,0.877,1.439,2.632,2.129c1.755,0.688,3.017,1.44,3.786,2.265
		c0.771,0.819,1.155,1.812,1.155,2.972c0,1.354-0.554,2.536-1.663,3.549c-1.107,1.01-2.415,1.516-3.913,1.516
		c-2.283,0-4.156-1.059-5.616-3.171l2.682-1.292c0.938,0.912,1.916,1.371,2.936,1.371c0.706,0,1.322-0.193,1.852-0.578
		c0.526-0.385,0.793-0.832,0.793-1.34c0-0.902-0.929-1.711-2.781-2.433c-1.852-0.718-3.133-1.446-3.844-2.184
		c-0.711-0.738-1.067-1.646-1.067-2.729c0-1.342,0.506-2.461,1.519-3.354c1.01-0.893,2.28-1.339,3.805-1.339
		S101.882,16.984,103.773,18.563z"/>
	<path fill="#FF1F70" d="M108.471,11.948h3.406v4.696h3.364v3.112h-3.364V32.79h-3.406V19.756h-2.683v-3.15h2.683V11.948z"/>
	<path fill="#FF1F70" d="M134.363,25.374h-13.778c0.302,1.655,0.981,2.865,2.045,3.629c1.063,0.765,2.222,1.146,3.476,1.146
		c1.93,0,3.549-0.803,4.853-2.407l2.483,1.88c-1.863,2.413-4.363,3.621-7.493,3.621c-2.4,0-4.41-0.822-6.026-2.467
		c-1.617-1.645-2.427-3.687-2.427-6.125c0-2.282,0.817-4.264,2.456-5.938c1.637-1.678,3.637-2.517,5.997-2.517
		c2.323,0,4.313,0.851,5.97,2.554C133.574,20.451,134.389,22.658,134.363,25.374z M120.938,22.652h9.863
		c-1.097-2.219-2.715-3.325-4.854-3.325C123.611,19.326,121.941,20.436,120.938,22.652z"/>
	<path fill="#FF1F70" d="M142.073,16.644v3.326c0.757-1.329,1.495-2.292,2.22-2.885s1.668-0.89,2.829-0.89
		c0.326,0,0.795,0.078,1.409,0.235l-1.037,3.406c-0.654-0.131-1.085-0.197-1.293-0.197c-1.146,0-2.109,0.402-2.885,1.204
		c-0.778,0.804-1.166,1.804-1.166,3.005v8.944h-3.406V16.645L142.073,16.644L142.073,16.644z"/>
</g>
</svg>
